<svg width="1728" height="1117" viewBox="0 0 1728 1117" fill="none" xmlns="http://www.w3.org/2000/svg">
<g clip-path="url(#clip0_2_11)">
<rect width="1728" height="1117" fill="white"/>
<g opacity="0.9" filter="url(#filter0_f_2_11)">
<rect x="-329" y="-212.67" width="2386" height="256.826" fill="#62BB47"/>
<rect x="-329" y="44.1567" width="2386" height="258.207" fill="#FCB827"/>
<rect x="-329" y="302.364" width="2386" height="256.826" fill="#F6821F"/>
<rect x="-329" y="557.81" width="2386" height="256.826" fill="#E03A3C"/>
<rect x="-329" y="814.636" width="2386" height="258.207" fill="#963D97"/>
<rect x="-329" y="1072.84" width="2386" height="256.826" fill="#009DDC"/>
</g>
<g opacity="0.5" filter="url(#filter1_f_2_11)">
<rect x="-437.479" y="74" width="2386" height="256.826" transform="rotate(14.1684 -437.479 74)" fill="#62BB47"/>
<rect x="-500.342" y="323.014" width="2386" height="258.207" transform="rotate(14.1684 -500.342 323.014)" fill="#FCB827"/>
<rect x="-563.545" y="573.367" width="2386" height="256.826" transform="rotate(14.1684 -563.545 573.367)" fill="#F6821F"/>
<rect x="-626.07" y="821.042" width="2386" height="256.826" transform="rotate(14.1684 -626.07 821.042)" fill="#E03A3C"/>
<rect x="-688.936" y="1070.06" width="2386" height="258.207" transform="rotate(14.1684 -688.936 1070.06)" fill="#963D97"/>
<circle cx="1478" cy="670" r="237" fill="white"/>
<circle cx="1478" cy="670" r="237" fill="white"/>
<circle cx="1478" cy="670" r="237" fill="white"/>
<circle cx="1478" cy="889" r="456" fill="white"/>
<circle cx="1478" cy="889" r="456" fill="white"/>
<circle cx="1478" cy="889" r="456" fill="white"/>
</g>
<g opacity="0.5" filter="url(#filter2_f_2_11)">
<rect x="110.455" y="-769.633" width="2386" height="256.826" transform="rotate(14.1684 110.455 -769.633)" fill="#F6821F"/>
<rect x="47.9297" y="-521.958" width="2386" height="256.826" transform="rotate(14.1684 47.9297 -521.958)" fill="#E03A3C"/>
<rect x="-14.9355" y="-272.944" width="2386" height="258.207" transform="rotate(14.1684 -14.9355 -272.944)" fill="#963D97"/>
<rect x="-78.1367" y="-22.5919" width="2386" height="256.826" transform="rotate(14.1684 -78.1367 -22.5919)" fill="#009DDC"/>
<circle cx="221.998" cy="214" r="237" fill="white"/>
<circle cx="221.998" cy="214" r="237" fill="white"/>
<circle cx="221.998" cy="214" r="237" fill="white"/>
</g>
<g opacity="0.9" filter="url(#filter3_f_2_11)">
<rect x="-329" y="-212.67" width="2386" height="256.826" fill="#62BB47"/>
<rect x="-329" y="44.1567" width="2386" height="258.207" fill="#FCB827"/>
<rect x="-329" y="302.364" width="2386" height="256.826" fill="#F6821F"/>
<rect x="-329" y="557.81" width="2386" height="256.826" fill="#E03A3C"/>
<rect x="-329" y="814.636" width="2386" height="258.207" fill="#963D97"/>
<rect x="-329" y="1072.84" width="2386" height="256.826" fill="#009DDC"/>
</g>
<g opacity="0.5" filter="url(#filter4_f_2_11)">
<rect x="-437.479" y="74" width="2386" height="256.826" transform="rotate(14.1684 -437.479 74)" fill="#62BB47"/>
<rect x="-500.342" y="323.014" width="2386" height="258.207" transform="rotate(14.1684 -500.342 323.014)" fill="#FCB827"/>
<rect x="-563.545" y="573.367" width="2386" height="256.826" transform="rotate(14.1684 -563.545 573.367)" fill="#F6821F"/>
<rect x="-626.07" y="821.042" width="2386" height="256.826" transform="rotate(14.1684 -626.07 821.042)" fill="#E03A3C"/>
<rect x="-688.936" y="1070.06" width="2386" height="258.207" transform="rotate(14.1684 -688.936 1070.06)" fill="#963D97"/>
<circle cx="1478" cy="670" r="237" fill="white"/>
<circle cx="1478" cy="670" r="237" fill="white"/>
<circle cx="1478" cy="670" r="237" fill="white"/>
<circle cx="1478" cy="889" r="456" fill="white"/>
<circle cx="1478" cy="889" r="456" fill="white"/>
<circle cx="1478" cy="889" r="456" fill="white"/>
</g>
<g opacity="0.5" filter="url(#filter5_f_2_11)">
<rect x="110.455" y="-769.633" width="2386" height="256.826" transform="rotate(14.1684 110.455 -769.633)" fill="#F6821F"/>
<rect x="47.9297" y="-521.958" width="2386" height="256.826" transform="rotate(14.1684 47.9297 -521.958)" fill="#E03A3C"/>
<rect x="-14.9355" y="-272.944" width="2386" height="258.207" transform="rotate(14.1684 -14.9355 -272.944)" fill="#963D97"/>
<rect x="-78.1367" y="-22.5919" width="2386" height="256.826" transform="rotate(14.1684 -78.1367 -22.5919)" fill="#009DDC"/>
<circle cx="221.998" cy="214" r="237" fill="white"/>
<circle cx="221.998" cy="214" r="237" fill="white"/>
<circle cx="221.998" cy="214" r="237" fill="white"/>
</g>
<path d="M0 0L1728 -2.44855e-07L1728 1117L1.58277e-07 1117L0 0Z" fill="#FF0000" style="mix-blend-mode:soft-light"/>
</g>
<defs>
<filter id="filter0_f_2_11" x="-461.556" y="-345.225" width="2651.11" height="1807.45" filterUnits="userSpaceOnUse" color-interpolation-filters="sRGB">
<feFlood flood-opacity="0" result="BackgroundImageFix"/>
<feBlend mode="normal" in="SourceGraphic" in2="BackgroundImageFix" result="shape"/>
<feGaussianBlur stdDeviation="66.2778" result="effect1_foregroundBlur_2_11"/>
</filter>
<filter id="filter1_f_2_11" x="-947.556" y="-58.5556" width="3014.11" height="2344.56" filterUnits="userSpaceOnUse" color-interpolation-filters="sRGB">
<feFlood flood-opacity="0" result="BackgroundImageFix"/>
<feBlend mode="normal" in="SourceGraphic" in2="BackgroundImageFix" result="shape"/>
<feGaussianBlur stdDeviation="66.2778" result="effect1_foregroundBlur_2_11"/>
</filter>
<filter id="filter2_f_2_11" x="-273.556" y="-1401.56" width="2956.05" height="2344.56" filterUnits="userSpaceOnUse" color-interpolation-filters="sRGB">
<feFlood flood-opacity="0" result="BackgroundImageFix"/>
<feBlend mode="normal" in="SourceGraphic" in2="BackgroundImageFix" result="shape"/>
<feGaussianBlur stdDeviation="66.2778" result="effect1_foregroundBlur_2_11"/>
</filter>
<filter id="filter3_f_2_11" x="-461.556" y="-345.225" width="2651.11" height="1807.45" filterUnits="userSpaceOnUse" color-interpolation-filters="sRGB">
<feFlood flood-opacity="0" result="BackgroundImageFix"/>
<feBlend mode="normal" in="SourceGraphic" in2="BackgroundImageFix" result="shape"/>
<feGaussianBlur stdDeviation="66.2778" result="effect1_foregroundBlur_2_11"/>
</filter>
<filter id="filter4_f_2_11" x="-947.556" y="-58.5556" width="3014.11" height="2344.56" filterUnits="userSpaceOnUse" color-interpolation-filters="sRGB">
<feFlood flood-opacity="0" result="BackgroundImageFix"/>
<feBlend mode="normal" in="SourceGraphic" in2="BackgroundImageFix" result="shape"/>
<feGaussianBlur stdDeviation="66.2778" result="effect1_foregroundBlur_2_11"/>
</filter>
<filter id="filter5_f_2_11" x="-273.556" y="-1401.56" width="2956.05" height="2344.56" filterUnits="userSpaceOnUse" color-interpolation-filters="sRGB">
<feFlood flood-opacity="0" result="BackgroundImageFix"/>
<feBlend mode="normal" in="SourceGraphic" in2="BackgroundImageFix" result="shape"/>
<feGaussianBlur stdDeviation="66.2778" result="effect1_foregroundBlur_2_11"/>
</filter>
<clipPath id="clip0_2_11">
<rect width="1728" height="1117" fill="white"/>
</clipPath>
</defs>
</svg>
